<svg id="visual" viewBox="0 0 960 540" width="960" height="540" xmlns="http://www.w3.org/2000/svg" xmlns:xlink="http://www.w3.org/1999/xlink" version="1.1"><rect x="0" y="0" width="960" height="540" fill="#ffffff"></rect><path d="M0 458L26.7 446.5C53.3 435 106.7 412 160 406.8C213.3 401.7 266.7 414.3 320 424.7C373.3 435 426.7 443 480 430.3C533.3 417.7 586.7 384.3 640 381.7C693.3 379 746.7 407 800 422.3C853.3 437.7 906.7 440.3 933.3 441.7L960 443L960 541L933.3 541C906.7 541 853.3 541 800 541C746.7 541 693.3 541 640 541C586.7 541 533.3 541 480 541C426.7 541 373.3 541 320 541C266.7 541 213.3 541 160 541C106.7 541 53.3 541 26.7 541L0 541Z" fill="#0066FF" stroke-linecap="round" stroke-linejoin="miter"></path></svg>